# xmcd CD database file
#
# Track frame offsets:
#	150
#	12697
#	28740
#	38050
#	52310
#	63697
#	84020
#	99717
#	120577
#	141987
#	155907
#	169557
#	187792
#	198895
#	210122
#	229180
#	244850
#	264462
#	275022
#
# Disc length: 4033 seconds
#
# Revision: 2
# Processed by: cddbd v1.5.1PL2 Copyright (c) Steve Scherf et al.
# Submitted via: CDex 1.51
#
DISCID=0d0fbf13
DTITLE=Fatboy Slim - On The Floor At The Boutique
DYEAR=1998
DGENRE=Electronica/Dance
TTITLE0=Apache
TTITLE1=Discotown
TTITLE2=Deaf Mick's Throwdown
TTITLE3=Because I Got It Like That
TTITLE4=Vol 1 Side 2 Track 2
TTITLE5=The Green Jesus
TTITLE6=The World's Made Up Of This and That
TTITLE7=Michael Jackson
TTITLE8=Phun-Ky
TTITLE9=Forget It
TTITLE10=Everybody in the House
TTITLE11=Can You Feel It?
TTITLE12=Acid Enlightenment
TTITLE13=I'm A Disco Dancer
TTITLE14=Psychopath
TTITLE15=Break In
TTITLE16=Give Me My Anger Back
TTITLE17=Post Punk Progression
TTITLE18=The Rockafeller Skank
EXTD=YEAR: 1998
EXTT0=
EXTT1=
EXTT2=
EXTT3=Ultimatum Mix
EXTT4=
EXTT5=
EXTT6=Fatboy Slim Mix
EXTT7=
EXTT8=
EXTT9=
EXTT10=
EXTT11=
EXTT12=
EXTT13=
EXTT14=
EXTT15=
EXTT16=
EXTT17=
EXTT18=
PLAYORDER=
